<?xml version="1.0" encoding="UTF-8" standalone="no"?>
<!-- Generator: Adobe Illustrator 19.0.0, SVG Export Plug-In . SVG Version: 6.00 Build 0)  -->

<svg
   xmlns:dc="http://purl.org/dc/elements/1.1/"
   xmlns:cc="http://creativecommons.org/ns#"
   xmlns:rdf="http://www.w3.org/1999/02/22-rdf-syntax-ns#"
   xmlns:svg="http://www.w3.org/2000/svg"
   xmlns="http://www.w3.org/2000/svg"
   xmlns:sodipodi="http://sodipodi.sourceforge.net/DTD/sodipodi-0.dtd"
   xmlns:inkscape="http://www.inkscape.org/namespaces/inkscape"
   version="1.1"
   id="Capa_1"
   x="0px"
   y="0px"
   viewBox="0 0 489.527 489.527"
   style="enable-background:new 0 0 489.527 489.527;"
   xml:space="preserve"
   sodipodi:docname="microscope-svgrepo-com.svg"
   inkscape:version="0.92.3 (2405546, 2018-03-11)"><metadata
   id="metadata55"><rdf:RDF><cc:Work
       rdf:about=""><dc:format>image/svg+xml</dc:format><dc:type
         rdf:resource="http://purl.org/dc/dcmitype/StillImage" /></cc:Work></rdf:RDF></metadata><defs
   id="defs53" /><sodipodi:namedview
   pagecolor="#ffffff"
   bordercolor="#666666"
   borderopacity="1"
   objecttolerance="10"
   gridtolerance="10"
   guidetolerance="10"
   inkscape:pageopacity="0"
   inkscape:pageshadow="2"
   inkscape:window-width="1366"
   inkscape:window-height="705"
   id="namedview51"
   showgrid="false"
   inkscape:zoom="0.48209802"
   inkscape:cx="-66.376543"
   inkscape:cy="244.7635"
   inkscape:window-x="-8"
   inkscape:window-y="-8"
   inkscape:window-maximized="1"
   inkscape:current-layer="Capa_1" />
<g
   id="g18"
   transform="matrix(0.78728772,0,0,0.75847199,42.729893,53.932203)">
	<g
   id="g16">
		<g
   id="g14">
			
				<rect
   x="210.464"
   y="46.306999"
   transform="matrix(-0.8935,-0.449,0.449,-0.8935,417.2299,376.1477)"
   width="85.498001"
   height="184.595"
   id="rect2" />
			<rect
   x="83.862999"
   y="313.827"
   width="134.10001"
   height="34.200001"
   id="rect4" />
			<path
   d="m 405.663,277.327 c 0,-60.6 -31.9,-113.9 -79.7,-143.8 l -18.7,36.9 c 34.6,23 57.6,62.2 57.6,106.9 0,70.7 -57.5,128.2 -128.2,128.2 -34.6,0 -65.7,-13.6 -88.6,-35.7 h -53.2 c 16.3,24.9 39.2,45.5 66.1,58.7 h -38.1 v 61 h 225.8 v -61 h -35.7 c 54.6,-27.6 92.7,-85.1 92.7,-151.2 z"
   id="path6"
   inkscape:connector-curvature="0" />
			
				<rect
   x="277.84299"
   y="7.8439999"
   transform="matrix(-0.8935,-0.449,0.449,-0.8935,555.6599,173.8512)"
   width="41.199001"
   height="26.399"
   id="rect8" />
			
				<rect
   x="216.894"
   y="240.196"
   transform="matrix(0.449,-0.8935,0.8935,0.449,-106.2222,341.1332)"
   width="13.2"
   height="32.999001"
   id="rect10" />
			
				<rect
   x="158.474"
   y="225.81799"
   transform="matrix(-0.8935,-0.4491,0.4491,-0.8935,225.362,525.2878)"
   width="33.000999"
   height="20.200001"
   id="rect12" />
		</g>
	</g>
</g>
<g
   id="g20">
</g>
<g
   id="g22">
</g>
<g
   id="g24">
</g>
<g
   id="g26">
</g>
<g
   id="g28">
</g>
<g
   id="g30">
</g>
<g
   id="g32">
</g>
<g
   id="g34">
</g>
<g
   id="g36">
</g>
<g
   id="g38">
</g>
<g
   id="g40">
</g>
<g
   id="g42">
</g>
<g
   id="g44">
</g>
<g
   id="g46">
</g>
<g
   id="g48">
</g>
</svg>