<?xml version="1.0" encoding="UTF-8" standalone="no"?>
<!-- Generator: Adobe Illustrator 17.1.0, SVG Export Plug-In . SVG Version: 6.00 Build 0)  -->

<svg
   xmlns:dc="http://purl.org/dc/elements/1.1/"
   xmlns:cc="http://creativecommons.org/ns#"
   xmlns:rdf="http://www.w3.org/1999/02/22-rdf-syntax-ns#"
   xmlns:svg="http://www.w3.org/2000/svg"
   xmlns="http://www.w3.org/2000/svg"
   xmlns:sodipodi="http://sodipodi.sourceforge.net/DTD/sodipodi-0.dtd"
   xmlns:inkscape="http://www.inkscape.org/namespaces/inkscape"
   version="1.1"
   id="Capa_1"
   x="0px"
   y="0px"
   viewBox="0 0 280.911 280.911"
   style="enable-background:new 0 0 280.911 280.911;"
   xml:space="preserve"
   sodipodi:docname="paint-brush-svgrepo-com.svg"
   inkscape:version="0.92.3 (2405546, 2018-03-11)"><metadata
   id="metadata43"><rdf:RDF><cc:Work
       rdf:about=""><dc:format>image/svg+xml</dc:format><dc:type
         rdf:resource="http://purl.org/dc/dcmitype/StillImage" /></cc:Work></rdf:RDF></metadata><defs
   id="defs41" /><sodipodi:namedview
   pagecolor="#ffffff"
   bordercolor="#666666"
   borderopacity="1"
   objecttolerance="10"
   gridtolerance="10"
   guidetolerance="10"
   inkscape:pageopacity="0"
   inkscape:pageshadow="2"
   inkscape:window-width="1366"
   inkscape:window-height="705"
   id="namedview39"
   showgrid="false"
   inkscape:zoom="0.84012371"
   inkscape:cx="-38.089629"
   inkscape:cy="140.45551"
   inkscape:window-x="-8"
   inkscape:window-y="-8"
   inkscape:window-maximized="1"
   inkscape:current-layer="Capa_1" />
<g
   id="g6"
   transform="matrix(0.74152499,0,0,0.73039049,39.280048,43.224267)">
	<path
   d="m 185.791,141.717 c -0.138,-0.101 -13.941,-10.167 -22.569,-18.795 -8.625,-8.626 -18.694,-22.431 -18.795,-22.568 -1.155,-1.59 -2.836,-2.502 -4.608,-2.502 -1.644,0 -3.201,0.764 -4.386,2.151 l -66.78,78.224 c -1.975,2.313 -2.257,5.672 -0.929,8.308 l -8.959,15.941 c -11.287,-2.071 -23.787,1.91 -32.554,11.539 -19.181,21.065 4.414,38.767 -23.816,54.193 -15.755,8.61 50.593,12.973 71.892,-10.419 7.933,-8.713 10.976,-20.036 9.175,-30.295 l 16.149,-9.075 c 1.053,0.53 2.24,0.821 3.457,0.821 0,0 0,0 0.001,0 1.805,0 3.527,-0.621 4.849,-1.75 l 78.224,-66.78 c 1.452,-1.239 2.215,-2.868 2.148,-4.588 -0.068,-1.717 -0.955,-3.283 -2.499,-4.405 z"
   id="path2"
   inkscape:connector-curvature="0" />
	<path
   d="m 280.911,42.128 c 0,-9.704 -3.779,-18.826 -10.641,-25.688 C 263.409,9.579 254.287,5.8 244.583,5.8 c -9.704,0 -18.826,3.778 -25.688,10.64 -0.163,0.162 -0.315,0.332 -0.474,0.497 -0.724,0.339 -1.393,0.797 -1.973,1.378 L 169.46,65.304 c -2.663,2.664 -3.098,7.358 -0.97,10.466 0.099,0.144 9.941,14.468 18.679,23.205 8.737,8.737 23.063,18.58 23.206,18.679 1.296,0.888 2.878,1.357 4.574,1.357 2.265,0 4.412,-0.849 5.891,-2.327 l 45.326,-45.326 c 1.441,-1.069 2.813,-2.251 4.105,-3.543 6.861,-6.861 10.64,-15.984 10.64,-25.687 z"
   id="path4"
   inkscape:connector-curvature="0" />
</g>
<g
   id="g8">
</g>
<g
   id="g10">
</g>
<g
   id="g12">
</g>
<g
   id="g14">
</g>
<g
   id="g16">
</g>
<g
   id="g18">
</g>
<g
   id="g20">
</g>
<g
   id="g22">
</g>
<g
   id="g24">
</g>
<g
   id="g26">
</g>
<g
   id="g28">
</g>
<g
   id="g30">
</g>
<g
   id="g32">
</g>
<g
   id="g34">
</g>
<g
   id="g36">
</g>
</svg>